<?xml version="1.0"?><svg width="480" height="446" xmlns="http://www.w3.org/2000/svg">
 <title>Black line Master Polish Map</title>

 <g>
  <title>Layer 1</title>
  <g id="svg_1">
   <g id="svg_2">
    <path id="svg_3" opacity="0.7" fill="#ffffff" d="m479.963013,314.105988c-9.377014,-6.699005 -4.347992,-19.510986 -8.707001,-28.710999c-2.997009,-6.479004 -9.618011,-12.428009 -13.279999,-19.013c-2.550995,-4.639984 -5.347015,-19.664001 -6.350006,-25.156006c0.152008,-1.050995 0.300995,-2.084991 0.052002,-2.83699c-1,-3.005005 -4.858002,-8.195007 -4.794006,-11.391006c0.502014,-3.481995 2.095001,-6.832001 2.856995,-9.923996c0.555023,-3.837006 0.563019,-8.824997 0.416016,-12.761993c-0.653015,-12.583008 -9.627991,-12.087006 -19.502991,-15.30101l2.970978,-13.468994l23.774017,-18.660004l1.763,-5.095001l-5.89502,-37.906998l-6.654999,-8.458l-13.937988,-29.090996l-1.841003,-12.037003l-0.441986,-16.805l-2.093018,-5.290001l-22.007996,-12.798l-8.125,-0.459999l-8.287994,5.569l-9.378998,3.278999l-47.682983,4.172001l-46.382019,-2.061001l-20.856995,-3.727001c-3.976013,5.488003 -11.395004,12.253002 -18.318008,13.399002l-1.899994,-1.702999c0.25,-1.735001 1.158997,-5.542004 2.057999,-6.823002c3.664993,-5.536999 9.938995,-9.620001 14.200989,-14.354c0.850006,-0.950001 1.708008,-1.898001 2.269012,-3.587c-5.220001,-0.753 -19.072006,18.622 -30.367004,18.064001c-3.850998,-0.556999 -7.557007,-2.164001 -11.378998,-2.715c-1.05101,-0.151001 -2.203003,0.398998 -3.253998,0.246998c-1.309006,-0.549 -5.055008,-2.139999 -5.968002,-2.988998c-4.216003,-2.757999 -13.389999,-15.83 -6.809998,-19.51301c7.024994,-4.335 15.994995,10.140009 20.36499,9.337l0.846008,-0.927999c-0.450012,-4.003 -8.463013,-8.002001 -11.628006,-10.604001c-0.598999,-0.785 -1.203995,-1.589 -1.852005,-2.037c-0.603989,-0.805 -7.419998,-5.349 -8.067993,-5.798c-4.361008,-2.062 -16.453003,-4.524 -20.908005,-3.377c-12.116989,2.527 -27.235992,6.052 -38.923004,10.407001c-3.437988,1.653999 -12.167999,7.871 -15.37999,10.268c-1.604004,1.18 -2.587006,3.188 -4.144005,4.035c-4.638,2.535 -10.832001,3.431 -15.518997,6.308998c-5.395004,2.781002 -9.932999,7.120003 -15.379997,10.268002c-4.637001,2.531002 -9.93,4.611 -14.823006,6.41c-4.083,1.183002 -8.394997,1.276001 -12.184998,2.875c-5.638,2.029999 -21.796001,7.890999 -26.110001,10.491001c-3.132,2.030998 -6.049,12.308998 -8.938,15.089996c-0.799,0.601006 -2.504999,-0.004997 -2.9,0.298004c-0.739,0.25 -1.286001,1.602997 -1.689001,1.901001c-0.552999,1.335999 -1.656,4.037994 -1.806999,5.088997c-0.302,4.589005 2.986,6.473999 0.087,11.764999c-7.69301,-3.597977 -3.47201,-10.482979 -15.76001,-11.900978l-0.655,4.539001l4.02,26.603996l1.078,7.276001l-4.2,14.362999c-2.958,3.134003 -8.102,4.180008 -9.11,8.667999c-0.151,1.05101 0.454,1.854004 0.657,2.938004c0.142,1.453995 -0.404,2.804001 -0.263,4.257004c1.154,4.437988 20.838,13.682999 21.727999,19.876999c1.479,6.990997 -4.216,14.360992 -3.073999,21.304001c0.597,3.294998 5.967001,5.492996 7.02,8.132996c0.998999,3.011002 -3.797001,6.572006 0.49,8.975998l-7.612,23.136002l5.712999,12.244003l-1.610001,6.166992l10.976,10.508011l1.111,21.89798l-8.962999,20.076019l7.073999,0.326996l2.313,-8.600006l9.831001,-1.419983l2.52,12.134979l5.382,7.177002l38.002998,10.837006l8.580002,-2.682983l3.628998,6.951996l-9.182999,9.362976l-1.452003,5.125l7.471001,2.504028l12.902,16.839996l5.403999,2.203979l4.428001,-6.139984l6.614998,-3.677002l0.453003,-3.144012l-7.514999,-5.014984l2.865005,-4.921997l13.335999,3.699982l8.313995,6.904999l10.080994,3.959015l9.170013,-4.029999l1.095001,7.277985l-4.615005,4.688019l8.625992,9.428986l6.065002,2.315002l6.880997,-3.277008l8.564011,7.292999l15.186996,1.118011l0.311005,5.028992l2.993988,8.985992l9.826004,8.555023l2.806,7.526001l4.061996,4.144989l0.144012,6.438995l9.973999,-2.472992l2.763,-9.22699l10.944,-6.633026l9.025009,13.786011l8.110992,3.313995l2.096008,5.278015l-0.248016,8.886993l11.328003,0.570984l7.98999,-10.977997l7.77002,-4.231964l8.673981,1.612l10.130005,-3.515015l10.440002,6.481995l7.118988,-7.165009l23.919006,-2.946991l18.501007,5.149017l6.204987,11.60199l25.067017,8.963989l14.196991,2.743011l2.345001,-3.575989l-8.207001,-7.59201l0.851013,-8.088013l-3.996002,-21.954987l1.766998,-7.231995l45.471985,-63.279999l10.13501,-3.531006l4.513,-3.980011l1.959015,-6.143982l0.253998,-6.716034z"/>
    <path id="svg_4" stroke="#060606" fill="#ffffff" d="m479.963013,314.105988c-9.377014,-6.699005 -4.347992,-19.510986 -8.707001,-28.710999c-2.997009,-6.479004 -9.618011,-12.428009 -13.279999,-19.013c-2.550995,-4.639984 -5.347015,-19.664001 -6.350006,-25.156006c0.152008,-1.050995 0.300995,-2.084991 0.052002,-2.83699c-1,-3.005005 -4.858002,-8.195007 -4.794006,-11.391006c0.502014,-3.481995 2.095001,-6.832001 2.856995,-9.923996c0.555023,-3.837006 0.563019,-8.824997 0.416016,-12.761993c-0.653015,-12.583008 -9.627991,-12.087006 -19.502991,-15.30101l2.970978,-13.468994l23.774017,-18.660004l1.763,-5.095001l-5.89502,-37.906998l-6.654999,-8.458l-13.937988,-29.090996l-1.841003,-12.037003l-0.441986,-16.805l-2.093018,-5.290001l-22.007996,-12.798l-8.125,-0.459999l-8.287994,5.569l-9.378998,3.278999l-47.682983,4.172001l-46.382019,-2.061001l-20.856995,-3.727001c-3.976013,5.488003 -11.395004,12.253002 -18.318008,13.399002l-1.899994,-1.702999c0.25,-1.735001 1.158997,-5.542004 2.057999,-6.823002c3.664993,-5.536999 9.938995,-9.620001 14.200989,-14.354c0.850006,-0.950001 1.708008,-1.898001 2.269012,-3.587c-5.220001,-0.753 -19.072006,18.622 -30.367004,18.064001c-3.850998,-0.556999 -7.557007,-2.164001 -11.378998,-2.715c-1.05101,-0.151001 -2.203003,0.398998 -3.253998,0.246998c-1.309006,-0.549 -5.055008,-2.139999 -5.968002,-2.988998c-4.216003,-2.757999 -13.389999,-15.83 -6.809998,-19.51301c7.024994,-4.335 15.994995,10.140009 20.36499,9.337l0.846008,-0.927999c-0.450012,-4.003 -8.463013,-8.002001 -11.628006,-10.604001c-0.598999,-0.785 -1.203995,-1.589 -1.852005,-2.037c-0.603989,-0.805 -7.419998,-5.349 -8.067993,-5.798c-4.361008,-2.062 -16.453003,-4.524 -20.908005,-3.377c-12.116989,2.527 -27.235992,6.052 -38.923004,10.407001c-3.437988,1.653999 -12.167999,7.871 -15.37999,10.268c-1.604004,1.18 -2.587006,3.188 -4.144005,4.035c-4.638,2.535 -10.832001,3.431 -15.518997,6.308998c-5.395004,2.781002 -9.932999,7.120003 -15.379997,10.268002c-4.637001,2.531002 -9.93,4.611 -14.823006,6.41c-4.083,1.183002 -8.394997,1.276001 -12.184998,2.875c-5.638,2.029999 -21.796001,7.890999 -26.110001,10.491001c-3.132,2.030998 -6.049,12.308998 -8.938,15.089996c-0.799,0.601006 -2.504999,-0.004997 -2.9,0.298004c-0.739,0.25 -1.286001,1.602997 -1.689001,1.901001c-0.552999,1.335999 -1.656,4.037994 -1.806999,5.088997c-0.302,4.589005 2.986,6.473999 0.087,11.764999c-7.69301,-3.597977 -3.47201,-10.482979 -15.76001,-11.900978l-0.655,4.539001l4.02,26.603996l1.078,7.276001l-4.2,14.362999c-2.958,3.134003 -8.102,4.180008 -9.11,8.667999c-0.151,1.05101 0.454,1.854004 0.657,2.938004c0.142,1.453995 -0.404,2.804001 -0.263,4.257004c1.154,4.437988 20.838,13.682999 21.727999,19.876999c1.479,6.990997 -4.216,14.360992 -3.073999,21.304001c0.597,3.294998 5.967001,5.492996 7.02,8.132996c0.998999,3.011002 -3.797001,6.572006 0.49,8.975998l-7.612,23.136002l5.712999,12.244003l-1.610001,6.166992l10.976,10.508011l1.111,21.89798l-8.962999,20.076019l7.073999,0.326996l2.313,-8.600006l9.831001,-1.419983l2.52,12.134979l5.382,7.177002l38.002998,10.837006l8.580002,-2.682983l3.628998,6.951996l-9.182999,9.362976l-1.452003,5.125l7.471001,2.504028l12.902,16.839996l5.403999,2.203979l4.428001,-6.139984l6.614998,-3.677002l0.453003,-3.144012l-7.514999,-5.014984l2.865005,-4.921997l13.335999,3.699982l8.313995,6.904999l10.080994,3.959015l9.170013,-4.029999l1.095001,7.277985l-4.615005,4.688019l8.625992,9.428986l6.065002,2.315002l6.880997,-3.277008l8.564011,7.292999l15.186996,1.118011l0.311005,5.028992l2.993988,8.985992l9.826004,8.555023l2.806,7.526001l4.061996,4.144989l0.144012,6.438995l9.973999,-2.472992l2.763,-9.22699l10.944,-6.633026l9.025009,13.786011l8.110992,3.313995l2.096008,5.278015l-0.248016,8.886993l11.328003,0.570984l7.98999,-10.977997l7.77002,-4.231964l8.673981,1.612l10.130005,-3.515015l10.440002,6.481995l7.118988,-7.165009l23.919006,-2.946991l18.501007,5.149017l6.204987,11.60199l25.067017,8.963989l14.196991,2.743011l2.345001,-3.575989l-8.207001,-7.59201l0.851013,-8.088013l-3.996002,-21.954987l1.766998,-7.231995l45.471985,-63.279999l10.13501,-3.531006l4.513,-3.980011l1.959015,-6.143982l0.253998,-6.716034z"/>
   </g>
  </g>
 </g>
</svg>